<svg width="179" height="16" viewBox="0 0 179 16" fill="none" xmlns="http://www.w3.org/2000/svg">
<path d="M34.8984 4.56532V6.32355C35.428 5.22905 36.6423 4.30762 38.4919 4.30762C41.1592 4.30762 42.8137 6.08867 42.8137 9.11447V15.593H40.2558V9.64888C40.2558 7.78129 39.419 6.60312 37.6979 6.60312C35.9767 6.60312 34.964 7.73945 34.964 9.54238V15.593H32.406V4.56532H34.9003H34.8984Z" fill="white"/>
<path d="M142.026 8.28242C143.242 7.57685 144.591 7.22501 146.081 7.22501C147.57 7.22501 148.944 7.57875 150.157 8.28242C151.373 8.988 152.334 9.96363 153.04 11.2093C153.746 12.4398 154.098 13.8072 154.098 15.3106C154.098 15.4637 154.095 15.6149 154.088 15.7642H151.525C151.534 15.6158 151.54 15.4646 151.54 15.3106C151.54 14.2503 151.302 13.2871 150.824 12.4227C150.345 11.5583 149.689 10.8794 148.857 10.3868C148.022 9.89421 147.099 9.64602 146.081 9.64602C145.062 9.64602 144.162 9.89326 143.327 10.3868C142.495 10.8794 141.839 11.5612 141.36 12.4227C140.882 13.2871 140.644 14.2503 140.644 15.3106C140.644 15.4637 140.649 15.6149 140.659 15.7642H138.096C138.088 15.613 138.086 15.4618 138.086 15.3106C138.086 13.8072 138.44 12.4398 139.144 11.2093C139.849 9.96078 140.81 8.988 142.026 8.28242Z" fill="white"/>
<path d="M0 0.0351836H2.80138L5.77773 12.223L8.97563 0.0351836H11.8854L15.1052 12.223L18.0616 0.0351836H20.7736L16.717 15.593H13.6513L10.3868 3.5545L7.12231 15.593H4.05658L0 0.0351836Z" fill="white"/>
<path d="M78.1809 6.27888C78.8646 5.05507 80.3433 4.30473 82.0169 4.30473C85.2813 4.30473 87.5303 6.81609 87.5303 10.0777C87.5303 13.3393 85.2823 15.8506 82.0179 15.8507C80.3186 15.8507 78.8209 15.0776 78.1372 13.7682V15.5911H75.6229V0.0351985H78.1809V6.27888ZM81.5548 6.58032C79.4172 6.58032 78.1372 8.1255 78.1372 10.0777C78.1372 12.0299 79.4371 13.5552 81.5548 13.5552C83.6724 13.5552 84.9505 12.0318 84.9505 10.0777C84.9505 8.12646 83.6924 6.58033 81.5548 6.58032Z" fill="white"/>
<path d="M63.6719 4.30668C67.0904 4.30668 69.3184 6.51565 69.3184 9.92846C69.3184 10.208 69.3185 10.5504 69.2966 10.8081H60.475C60.6956 12.611 61.9955 13.6608 63.806 13.6608C65.1734 13.6608 66.189 13.2519 66.7605 12.2021H69.23C68.5463 14.4976 66.4733 15.8497 63.7394 15.8497C60.2772 15.8497 57.8723 13.6408 57.8723 10.0568L57.8714 10.0577C57.8714 6.81801 60.2534 4.30669 63.6719 4.30668ZM63.7138 6.45189C62.0821 6.45189 60.9125 7.39521 60.5388 8.87671H66.7348C66.5142 7.39616 65.3456 6.45189 63.7138 6.45189Z" fill="white"/>
<path d="M178.38 15.767H175.676L174.438 12.5796H167.565L166.314 15.767H163.677L169.96 0.00093234H172.075L178.38 15.767ZM168.435 10.3602H173.576L171.017 3.77513L168.435 10.3602Z" fill="white"/>
<path d="M138.086 0.444075C138.086 0.295733 138.091 0.14644 138.102 0.000950906H140.397C140.382 0.144538 140.372 0.29288 140.372 0.444075C140.372 1.08023 140.521 1.66504 140.815 2.1928V2.19565C141.125 2.70819 141.539 3.11898 142.052 3.43183C142.581 3.72661 143.157 3.87496 143.777 3.87496C144.398 3.87496 144.969 3.72661 145.482 3.43183C145.994 3.11993 146.4 2.70629 146.695 2.19375C147.007 1.66409 147.163 1.07928 147.163 0.443124C147.163 0.291929 147.155 0.143587 147.138 0H149.434C149.443 0.14644 149.449 0.291929 149.449 0.443124C149.449 1.50529 149.194 2.46856 148.686 3.33579C148.194 4.20302 147.512 4.89148 146.645 5.39926C145.778 5.89183 144.823 6.14002 143.775 6.14002C142.727 6.14002 141.746 5.89279 140.879 5.39926C140.012 4.89148 139.323 4.20302 138.816 3.33579C138.324 2.47046 138.076 1.50814 138.085 0.445976L138.086 0.444075Z" fill="white"/>
<path d="M157.607 15.767L151.661 0.000950906H154.32L158.662 11.8436L163.003 0.000950906H165.619L159.695 15.767H157.607Z" fill="white"/>
<path d="M123.043 15.767V0.000950906H125.235L132.903 10.9792V0.000950906H135.416V15.767H133.224L125.534 4.78783V15.767H123.043Z" fill="white"/>
<path d="M94.6935 4.3076C98.1776 4.30762 100.692 6.68969 100.692 10.0587C100.692 13.4278 98.1776 15.8517 94.6935 15.8517C91.2094 15.8517 88.6951 13.4496 88.6951 10.1005C88.6952 6.70961 91.2094 4.3076 94.6935 4.3076ZM94.6935 6.60028C92.688 6.60028 91.2759 8.0808 91.2759 10.0777C91.2759 12.0746 92.688 13.5552 94.6935 13.5552C96.6989 13.5552 98.111 12.0546 98.111 10.0777C98.111 8.08177 96.6989 6.6003 94.6935 6.60028Z" fill="white"/>
<path d="M56.3347 15.593H53.8205V13.7701C53.1368 15.0804 51.6363 15.8526 49.9617 15.8526C46.6754 15.8526 44.4265 13.3413 44.4265 10.0796C44.4265 6.81802 46.6754 4.30668 49.9617 4.30668C51.6154 4.30668 53.094 5.05694 53.7758 6.28074L53.7768 6.28167V0.0351985H56.3347V15.593ZM50.404 6.58032C48.2863 6.58032 47.0083 8.1255 47.0083 10.0777C47.0083 12.0299 48.2663 13.5552 50.404 13.5552C52.5416 13.5552 53.8215 12.0318 53.8215 10.0777C53.8215 8.12646 52.5216 6.58034 50.404 6.58032Z" fill="white"/>
<path d="M25.4691 4.30575C28.5796 4.30575 30.2988 5.93556 30.2988 8.74642V15.592H27.9386V13.9822C27.2549 15.1832 25.8657 15.8497 24.1027 15.8497C21.657 15.8497 20.1783 14.4985 20.1773 12.5035V12.5025C20.1773 10.2936 21.9213 8.96141 25.007 8.9614H27.7856V8.59719C27.7856 7.18034 26.9041 6.45291 25.3807 6.45291C23.8574 6.45291 23.1318 7.2678 22.9759 7.97622H20.5511C20.7489 6.19517 22.3587 4.30575 25.4691 4.30575ZM25.1601 10.9155C23.6168 10.9155 22.6906 11.3881 22.6906 12.3542C22.6906 13.2338 23.419 13.7711 24.6543 13.7711C26.5294 13.7711 27.7875 12.6984 27.7847 11.022L27.7856 10.9155H25.1601Z" fill="white"/>
<path d="M73.5528 0.0351836H70.9949V15.593H73.5528V0.0351836Z" fill="white"/>
<path d="M107.01 15.593C104.384 15.593 103.04 14.4567 103.04 12.2449V6.77428H100.967V4.56532H103.061V1.4102H105.598V4.56532H108.708V6.77428H105.598V11.9035C105.598 13.0826 106.281 13.384 107.383 13.384H108.706V15.593H107.01Z" fill="white"/>
<path d="M112.547 12.3095C112.812 13.1245 113.671 13.7482 115.149 13.7482C116.715 13.7482 117.465 13.191 117.465 12.5026C117.465 11.7523 116.891 11.3234 115.501 11.1951C115.06 11.1523 114.62 11.1095 114.179 11.0667C111.709 10.8318 110.518 9.71449 110.518 7.8469C110.518 5.97932 112.262 4.30572 115.061 4.30572C117.86 4.30572 119.383 5.87091 119.759 7.7385H117.313C117.026 6.94354 116.297 6.40818 114.997 6.40818C113.697 6.40818 112.946 7.03007 112.946 7.67384C112.946 8.3176 113.387 8.65993 114.511 8.7883C115.004 8.84536 115.497 8.90241 115.99 8.95947C118.504 9.259 119.894 10.267 119.894 12.3076C119.894 14.3483 118.217 15.8488 115.087 15.8488C111.956 15.8488 110.388 14.1524 110.104 12.3076C110.919 12.3076 111.734 12.3095 112.549 12.3105L112.547 12.3095Z" fill="white"/>
</svg>
